<?xml version="1.0" encoding="UTF-8"?><svg id="AuthLogo" xmlns="http://www.w3.org/2000/svg" viewBox="0 0 526.94 526.94"><path d="M409.24,282.58c3.67,3.81,5.52,8.48,5.52,14.02s-1.84,10.2-5.52,14c-3.68,3.8-8.33,5.68-13.97,5.68s-10.22-1.89-13.91-5.68c-3.67-3.8-5.51-8.46-5.51-14s1.85-10.21,5.51-14.02c3.72-3.69,8.35-5.54,13.91-5.54s10.29,1.85,13.97,5.54Zm-282.83-6.88c-5.56,0-10.19,1.84-13.91,5.54-3.68,3.81-5.52,8.49-5.52,14.03s1.84,10.2,5.52,14c3.68,3.79,8.31,5.69,13.91,5.69s10.29-1.9,13.96-5.69c3.68-3.8,5.52-8.45,5.52-14s-1.84-10.21-5.52-14.03c-3.68-3.69-8.33-5.54-13.96-5.54Zm154.72,1.72c-5.18-.04-9.64,1.83-13.4,5.57-3.66,3.69-5.5,8.12-5.5,13.29s1.84,9.7,5.5,13.39c3.76,3.72,8.22,5.57,13.39,5.58,.06-5.43,1.26-8.66-2.51-12.62-4.68-4.93-5.37-21.69-3.38-21.69,1.51,0,.44,15.45,3.09,15.45,1.17,0-.74-15.33,1.24-15.37,1.95-.04,.71,15.27,2.07,15.32,1.55,.05,.03-15.45,1.97-15.35,2.23,.12-.11,15.21,1.28,15.29,1.91,.11,.6-15.15,2.63-15.18,.87-.01,1.55,11.12-.35,15.28-2.37,5.2-4.22,4.92-3.04,13.93,.2,1.51,.24,3.04,.23,4.7,3.89-.6,7.33-2.39,10.29-5.35,3.66-3.7,5.5-8.16,5.5-13.38s-1.84-9.66-5.52-13.35c-3.68-3.67-8.17-5.51-13.47-5.51Zm224.56-13.95c0,133.77-108.45,242.22-242.22,242.22S21.25,397.24,21.25,263.47,129.7,21.25,263.47,21.25s242.22,108.44,242.22,242.22ZM98.14,219.53c0-11.28-6.36-22.7-13.45-22.7s-12.22,11.42-12.22,22.7c0,8.2,2.75,14.26,5.25,17.7,1.12,1.55,3.03,2.54,4.3,3.46,1.41,1.89,1.28,3.32,1.28,3.32l-.11,13.43-2.3,62.15s0,.03,0,.04c0,.72,2.17,1.3,4.84,1.3s4.83-.58,4.83-1.3c0-.01-.01-.03-.01-.05l-2.53-61.94,.03-13.63c.06-1.41,.66-2.53,1.27-3.33,1.4-1.08,3.23-2.26,4.38-3.9,3.22-4.6,4.46-8.51,4.46-17.26Zm52.23,52.98h-3.89l-.6,12.51c-1.7-4.03-4.24-7.26-7.63-9.69-3.38-2.44-7.43-3.65-12.11-3.65-6.47-.03-12.04,2.29-16.74,6.98-4.61,4.61-6.92,10.15-6.92,16.61s2.31,12.12,6.92,16.74c4.69,4.65,10.27,6.97,16.74,6.97,4.6,.04,8.68-1.25,12.23-3.85,3.63-2.61,6.25-5.93,7.87-9.95l-.35,5.45v7.29h4.49v-45.41Zm99.09,0h-4.51l-19.64,39.24-19.65-39.24h-4.63l24.19,47.96,24.24-47.96Zm55.38,23.82c0-6.52-2.31-12.08-6.9-16.69-4.6-4.6-10.21-6.9-16.84-6.9-6.47-.04-12.05,2.29-16.74,6.97-4.58,4.61-6.87,10.15-6.87,16.61s2.29,12.12,6.87,16.73c4.64,4.6,10.16,6.92,16.54,6.97h.2c1.08,0,2.1-.06,3.12-.18,5.23-.61,9.81-2.89,13.75-6.82,4.57-4.62,6.86-10.19,6.86-16.71Zm17.97-67.08h-4.5v90.8h4.5v-90.8Zm36.08,39.79h-9.27l-.12-7.63c.21-.22,.36,.38,.45,.11,.27-.48,.42-.61,.42-1.21,0-.8-.27-1.31-.72-1.86-.03-.11-.06-.06-.06-.06,.55-3.74,3-4.23,3-4.23,.95-.41,.95-1.66,.95-1.66,.91-19.45-.4-30.98-.4-30.98-2.88-18.87-8.71-20.82-8.71-20.82-3.87-1.98-4.92,.02-4.92,.02-1.3,1.79-.87,5.76-.87,5.76,0,0,1.72,8.99,2.13,17.71,.45,9.65,0,12.41,.2,16.98l-.22,13.34c1.68,2.4,1.8,3.86,1.8,3.86-.04,.09-.09,.18-.13,.27-.45,.56-.74,1.29-.74,2.11,0,1.01,.44,.18,1.11,.75l-.31,7.54h-6.55v10.2h6.42s-1.45,40.03-1.44,40.04c.04,.68,2.11,1.44,4.66,1.44s4.67-1.46,4.67-2.16c0,0-.57-39.32-.57-39.32h9.22v-10.2Zm60.34,4.81h-3.89l-.6,12.51c-1.7-4.03-4.24-7.26-7.63-9.69-3.38-2.44-7.43-3.65-12.12-3.65-6.46-.04-12.04,2.28-16.73,6.97-4.61,4.61-6.92,10.15-6.92,16.61s2.31,12.12,6.92,16.73c4.69,4.65,10.27,6.98,16.73,6.98,4.61,.04,8.69-1.25,12.24-3.85,3.63-2.61,6.25-5.92,7.87-9.95l-.36,5.45v7.29h4.49v-45.4Zm16.44,40.75c-.01,1.43-.11,2.52-.13,3.25-.04,.73-.06,1.11-.06,1.11l13.35-.06s-.03-.42-.1-1.23c-.07-.81-.14-2.01-.31-3.57-.28-3.12-.84-7.7-1.91-13.43-1.08-5.73-2.76-12.61-5.41-20.22-2.64-7.61-6.29-15.95-11.26-24.46-2.47-4.25-5.28-8.55-8.44-12.79-1.57-2.12-3.25-4.23-4.98-6.33-1.77-2.08-3.57-4.17-5.51-6.19-3.84-4.08-8.04-8.01-12.56-11.75-4.55-3.7-9.38-7.26-14.55-10.46-2.58-1.61-5.23-3.14-7.95-4.6-1.35-.74-2.74-1.42-4.12-2.12-1.4-.67-2.8-1.36-4.23-1.98-2.84-1.29-5.76-2.46-8.72-3.54-2.95-1.1-5.97-2.08-9.02-2.97-12.22-3.52-25.15-5.38-38.02-5.29-12.95,0-25.82,1.97-38.02,5.64-3.04,.91-6.05,1.93-8.99,3.07-1.48,.54-2.93,1.16-4.39,1.74-1.44,.63-2.88,1.23-4.29,1.9-2.84,1.3-5.6,2.72-8.3,4.21-2.71,1.48-5.33,3.05-7.9,4.69-10.25,6.55-19.25,14.28-26.86,22.49-3.81,4.1-7.27,8.33-10.38,12.6-3.13,4.26-5.91,8.57-8.37,12.83-4.91,8.53-8.52,16.88-11.15,24.5-2.63,7.62-4.29,14.51-5.36,20.24-.53,2.86-.9,5.45-1.23,7.69-.14,1.13-.26,2.18-.38,3.13-.12,.96-.19,1.87-.26,2.66-.16,1.65-.23,2.71-.29,3.5-.06,.77-.09,1.17-.09,1.17l13.35,.17s-.02-.4-.06-1.17c-.04-.75-.13-1.98-.14-3.32-.01-.7-.05-1.46-.05-2.34,0-.88,0-1.83,0-2.87,.04-1.03,.05-2.15,.11-3.34,.09-1.18,.13-2.45,.26-3.77,.44-5.32,1.3-11.8,3.15-19.07,1.83-7.26,4.61-15.34,8.7-23.69,4.11-8.33,9.52-16.96,16.44-25.17,6.91-8.2,15.27-16.03,24.98-22.67,4.84-3.34,10.02-6.38,15.46-9.04,5.43-2.69,11.14-5,17.05-6.86,2.95-.95,5.95-1.76,8.98-2.49,3.03-.74,6.11-1.32,9.21-1.8,6.19-.97,12.51-1.45,18.77-1.51,12.63-.02,25.21,1.81,37.06,5.46,5.92,1.8,11.66,4.04,17.12,6.66,1.38,.64,2.71,1.34,4.06,2.02,1.33,.72,2.66,1.4,3.95,2.16,2.61,1.46,5.12,3.05,7.56,4.68,4.89,3.27,9.46,6.82,13.67,10.59,4.19,3.79,8.09,7.71,11.55,11.8,6.99,8.14,12.47,16.73,16.61,25.04,4.13,8.33,6.94,16.38,8.79,23.64,1.87,7.26,2.75,13.74,3.21,19.05,.49,5.32,.44,9.52,.38,12.36Z" style="fill:#1d1d1b;"/></svg>