<?xml version="1.0" encoding="UTF-8"?><svg id="Capa_2" xmlns="http://www.w3.org/2000/svg" viewBox="0 0 491.59 491.59"><g id="logoFAV"><path d="M245.8,491.59c-16.64,0-33.23-1.67-49.54-4.99-31.44-6.44-61.31-19.01-87.89-36.98-39.52-26.68-70.45-64.24-89.05-108.14-6.29-14.87-11.08-30.32-14.32-46.14-6.66-32.69-6.66-66.38,0-99.07,6.44-31.44,19.01-61.31,36.98-87.89,26.68-39.52,64.24-70.45,108.14-89.05,14.87-6.29,30.32-11.08,46.14-14.32,32.69-6.66,66.38-6.66,99.07,0,31.44,6.44,61.31,19.01,87.89,36.98,39.52,26.68,70.45,64.24,89.05,108.14,6.29,14.87,11.08,30.32,14.32,46.14,6.66,32.69,6.66,66.38,0,99.07-6.44,31.44-19.01,61.31-36.98,87.89-26.68,39.52-64.24,70.45-108.14,89.05-14.87,6.29-30.32,11.08-46.14,14.32-16.3,3.32-32.9,5-49.54,4.99Zm-2.3-473.86c-7.67,0-15.31,.35-22.72,1.05-7.41,.7-14.79,1.76-21.94,3.15-7.13,1.39-14.19,3.14-21.15,5.25-6.91,2.1-13.71,4.55-20.36,7.35-6.68,2.82-13.22,5.97-19.58,9.45-6.36,3.49-12.69,7.37-18.79,11.55-6.1,4.18-12.16,8.78-18,13.66-5.84,4.88-11.64,10.18-17.22,15.76-5.48,5.53-10.69,11.29-15.49,17.1-4.8,5.81-9.31,11.85-13.43,17.94-4.12,6.09-7.94,12.41-11.36,18.77-6.87,12.75-12.41,26.17-16.53,40.06-2.08,7-3.8,14.11-5.17,21.29-1.37,7.2-2.41,14.64-3.1,22.12-.69,7.48-1.03,15.2-1.03,22.96s.35,15.67,1.03,23.24c.69,7.56,1.73,15.09,3.1,22.36,1.37,7.27,3.11,14.5,5.17,21.49,4.11,13.98,9.66,27.5,16.54,40.35,3.47,6.47,7.27,12.77,11.37,18.86,4.12,6.11,8.64,12.16,13.44,17.98,4.8,5.82,10.02,11.58,15.51,17.11,5.57,5.52,11.34,10.77,17.17,15.61,5.83,4.84,11.87,9.4,17.95,13.55,6.09,4.15,12.39,8.02,18.74,11.49,6.35,3.47,12.86,6.62,19.53,9.44,6.64,2.8,13.42,5.27,20.31,7.38,6.87,2.11,13.97,3.9,21.1,5.32,7.13,1.42,14.5,2.52,21.88,3.26,7.39,.74,15.02,1.15,22.67,1.21h3.4c9.57,0,19.13-.57,28.64-1.71,12.4-1.45,24.67-3.94,36.65-7.44,11.8-3.48,23.28-7.98,34.31-13.44,11.18-5.57,21.87-12.07,31.96-19.43,10.51-7.7,20.42-16.2,29.62-25.42,5.48-5.54,10.7-11.3,15.5-17.13,4.8-5.83,9.32-11.88,13.43-17.99,4.1-6.09,7.9-12.39,11.37-18.86,6.88-12.83,12.42-26.34,16.54-40.3,2.06-6.97,3.8-14.19,5.18-21.45,1.37-7.26,2.42-14.76,3.11-22.31,.69-7.54,1.04-15.34,1.05-23.17,0-7.83-.34-15.63-1.02-23.17-.68-7.54-1.73-15.04-3.1-22.3-1.37-7.22-3.1-14.37-5.18-21.43-4.13-13.95-9.69-27.44-16.59-40.24-3.49-6.46-7.29-12.73-11.41-18.81-4.13-6.1-8.67-12.13-13.49-17.94-4.82-5.81-10.06-11.55-15.57-17.07s-11.27-10.75-17.09-15.58c-5.82-4.83-11.87-9.37-17.99-13.51-6.11-4.13-12.42-7.94-18.91-11.43-12.91-6.93-26.49-12.5-40.54-16.62-7.03-2.07-14.31-3.82-21.64-5.2-7.33-1.38-14.91-2.43-22.55-3.12-7.63-.69-15.52-1.04-23.45-1.04h-.16c-.55,0-1.12,0-1.68,0h-.01Zm1.66,410.15c-12.12-.01-24.2-1.17-36.1-3.47-11.5-2.24-22.74-5.64-33.55-10.15-10.87-4.56-21.25-10.2-30.99-16.83-10.18-6.95-19.69-14.83-28.44-23.51-8.57-8.63-16.32-18.04-23.14-28.11-13.16-19.48-22.2-41.46-26.56-64.56-2.26-12.02-3.4-24.23-3.41-36.46-.03-12.1,1.08-24.19,3.32-36.08,4.35-22.96,13.39-44.78,26.56-64.09,6.86-10.04,14.64-19.41,23.24-28.01,8.65-8.69,18.08-16.56,28.17-23.52,9.64-6.62,19.92-12.25,30.69-16.8,10.7-4.49,21.83-7.87,33.21-10.08,11.78-2.26,23.74-3.39,35.73-3.36h1.38c12.37-.03,24.71,1.08,36.87,3.32,11.62,2.17,22.99,5.51,33.94,9.97,10.87,4.46,21.26,10.03,30.99,16.61,20.13,13.75,37.53,31.12,51.31,51.23,13.21,19.38,22.25,41.29,26.56,64.34,2.23,11.99,3.34,24.17,3.3,36.37,.8,48.48-18.32,95.16-52.89,129.15-6.93,6.97-14.37,13.42-22.25,19.31-7.57,5.64-15.58,10.67-23.94,15.04-8.24,4.29-16.81,7.89-25.64,10.77-8.92,2.9-18.06,5.07-27.33,6.5,.31-15.15-.42-30.3-2.21-45.35-1.87-13.53-3.01-27.14-3.41-40.79-.29-9.13,.34-18.27,1.89-27.27,2.8-14.98,8.5-24.88,15.72-37.42,5.53-9.34,10.58-18.94,15.13-28.79,4-8.78,7.05-21.25,9.07-37.06,1.82-15.17,2.72-30.44,2.67-45.72,.06-13.65-.6-27.29-1.97-40.88-1.27-11.64-2.99-19.64-4.84-22.52-.5-.78-1.02-1.18-1.53-1.18h-.02c-1.32,.07-2.54,.71-3.35,1.75-1.17,1.44-2.07,3.08-2.67,4.84-1.48,3.91-2.69,9.52-3.69,17.15-1.86,14.15-2.69,33.17-3.49,51.55-.77,17.56-1.56,35.72-3.25,49.01-.91,7.15-2,12.39-3.34,16.03-.53,1.62-1.34,3.14-2.4,4.48-.71,.95-1.82,1.53-3.01,1.58-.06,0-.12,0-.19,0-.83-.12-1.55-.65-1.9-1.41-.63-1.17-1.08-2.43-1.32-3.74-.81-4.41-1.23-8.89-1.25-13.38-.31-11.15,.26-26.21,.86-42.16,1.54-40.38,3.27-86.15-8.73-86.82-.06,0-.13,0-.19,0-1.23,.05-2.36,.67-3.08,1.66-1.07,1.41-1.89,3-2.41,4.7-1.32,3.83-2.35,9.31-3.14,16.77-1.48,13.97-1.86,32.8-2.13,50.89l-.09,6.18c-.49,34.89-.95,67.84-7.91,67.84h-.07c-.87-.12-1.61-.67-1.99-1.46-.71-1.24-1.24-2.58-1.57-3.98-1.09-4.68-1.8-9.44-2.12-14.23-1.04-11.84-1.44-27.69-1.87-44.47-.51-20.08-1.04-40.83-2.71-56.74-.91-8.61-2.06-14.95-3.51-19.39-.57-1.97-1.47-3.83-2.66-5.5-.76-1.15-2.03-1.88-3.41-1.96h-.07c-1.06,.05-2.06,.53-2.76,1.34-7.61,7.96-6.59,49.95-5.69,86.99,.36,14.69,.69,28.56,.47,39.27-.04,4.47-.31,8.94-.82,13.38-.48,3.64-1.16,5.86-2.07,6.79-.26,.3-.64,.48-1.04,.49-1.87-.04-3.64-.82-4.93-2.16-1.69-1.75-3.04-3.81-3.97-6.05-2.21-4.87-4.04-11.8-5.59-21.2-2.86-17.31-4.18-39.34-5.47-60.63-.94-15.64-1.82-30.42-3.26-41.22-.47-4.37-1.35-8.69-2.63-12.89-1.11-3.22-2.39-4.79-3.89-4.79-2,0-3.77,1.75-5.25,5.21-2.95,6.87-4.67,20.27-4.84,37.73-.08,8.7,.22,18.1,.89,27.93,.72,10.34,1.8,20.64,3.24,30.9,1.54,10.91,3.45,21.53,5.69,31.58,2.23,10.12,4.98,20.12,8.26,29.96,2.95,8.95,6.6,17.66,10.92,26.04,3.65,7.19,8.25,13.86,13.69,19.81,6.48,6.64,12.04,14.12,16.5,22.26,3.69,6.88,6.34,14.27,7.86,21.92,2.99,14.81,2.08,30.3,1.04,48.24-.54,9.24-1.1,18.79-1.21,29.36h0Z" style="fill:#010101;"/></g></svg>